<?xml version="1.0" encoding="UTF-8" standalone="no"?>
<svg
   xmlns:dc="http://purl.org/dc/elements/1.1/"
   xmlns:cc="http://creativecommons.org/ns#"
   xmlns:rdf="http://www.w3.org/1999/02/22-rdf-syntax-ns#"
   xmlns:svg="http://www.w3.org/2000/svg"
   xmlns="http://www.w3.org/2000/svg"
   xmlns:sodipodi="http://sodipodi.sourceforge.net/DTD/sodipodi-0.dtd"
   xmlns:inkscape="http://www.inkscape.org/namespaces/inkscape"
   sodipodi:docname="title.svg"
   inkscape:version="1.0beta2 (2b71d25, 2019-12-03)"
   id="svg8"
   version="1.1"
   viewBox="0 0 70.060837 22.448242"
   height="22.448242mm"
   width="70.060837mm">
  <defs
     id="defs2" />
  <sodipodi:namedview
     inkscape:window-maximized="0"
     inkscape:window-y="23"
     inkscape:window-x="0"
     inkscape:window-height="709"
     inkscape:window-width="1280"
     showgrid="false"
     inkscape:document-rotation="0"
     inkscape:current-layer="layer1"
     inkscape:document-units="mm"
     inkscape:cy="-423.96211"
     inkscape:cx="17.819191"
     inkscape:zoom="0.35"
     inkscape:pageshadow="2"
     inkscape:pageopacity="0.0"
     borderopacity="1.0"
     bordercolor="#666666"
     pagecolor="#ffffff"
     id="base" />
  <metadata
     id="metadata5">
    <rdf:RDF>
      <cc:Work
         rdf:about="">
        <dc:format>image/svg+xml</dc:format>
        <dc:type
           rdf:resource="http://purl.org/dc/dcmitype/StillImage" />
        <dc:title></dc:title>
      </cc:Work>
    </rdf:RDF>
  </metadata>
  <g
     transform="translate(-61.596536,-131.47135)"
     id="layer1"
     inkscape:groupmode="layer"
     inkscape:label="Layer 1">
    <g
       style="font-style:normal;font-variant:normal;font-weight:normal;font-stretch:normal;font-size:25.39999999999999858px;line-height:1.25;font-family:'Edwardian Script ITC';-inkscape-font-specification:'Edwardian Script ITC';fill:#ffffff;fill-opacity:1;stroke:none;stroke-width:0.264583"
       id="text16"
       aria-label="Escapade">
      <path
         id="path121"
         style="font-style:normal;font-variant:normal;font-weight:normal;font-stretch:normal;font-family:'Edwardian Script ITC';-inkscape-font-specification:'Edwardian Script ITC';stroke-width:0.264583;fill:#ffffff"
         d="m 84.007571,133.12087 q 0,0.83095 -1.525488,0.83095 -1.203028,0 -5.717481,-1.11621 -2.108398,1.20303 -2.108398,3.02617 0,0.88057 0.607715,1.21543 0.880566,-0.0744 1.327051,-0.0744 1.289843,0 1.289843,0.31006 0,0.19843 -0.682129,0.19843 -0.868164,0 -1.885156,-0.24804 -1.37666,0.19844 -3.199804,1.0666 -4.638477,2.22002 -4.638477,5.75469 0,2.34404 2.530078,2.97656 -0.458887,-0.75654 -0.458887,-1.74873 0,-2.44326 2.492871,-4.50205 2.492872,-2.05879 5.457032,-2.05879 1.364257,0 2.17041,0.66973 0.806152,0.66972 0.806152,1.79834 0,2.41845 -2.654101,4.36562 -2.654102,1.93477 -5.97793,1.93477 -0.669727,0 -1.252637,-0.0744 1.190625,1.5999 3.534668,1.5999 1.451074,0 2.368848,-0.43408 l 0.148828,-0.0248 q 0.07441,0.0248 0.07441,0.0992 0,0.17363 -0.917773,0.35966 -0.917774,0.19844 -1.674317,0.19844 -2.59209,0 -3.956347,-1.87275 -1.897559,-0.42168 -2.976563,-1.42627 -1.066601,-1.01699 -1.066601,-2.35645 0,-1.79834 1.488281,-3.36103 1.488281,-1.5751 3.96875,-2.38125 1.500683,-0.4961 3.435449,-0.71934 -1.37666,-0.58291 -1.37666,-1.84795 0,-1.6247 2.009179,-2.71611 -2.877343,-0.69453 -4.750097,-0.69453 -3.671094,0 -6.263184,1.83555 -2.579687,1.83554 -2.579687,4.44003 0,1.16582 0.682129,1.99678 0.682129,0.83096 1.637109,0.83096 0.657324,0 0.657324,-0.21084 0,-0.11162 -0.235644,-0.0744 -0.657324,0 -0.657324,-0.60771 0,-0.34727 0.285254,-0.59531 0.297656,-0.24805 0.706933,-0.24805 0.79375,0 0.79375,0.76895 0,0.50849 -0.458887,0.86816 -0.446484,0.34727 -1.091406,0.34727 -1.153418,0 -1.971972,-1.0294 -0.806153,-1.0418 -0.806153,-2.50527 0,-2.19522 1.909961,-4.03076 2.269629,-2.18282 6.374805,-2.18282 2.282031,0 6.077148,0.93018 1.711523,-0.83096 3.981152,-0.83096 1.686719,0 2.877344,0.45889 1.190625,0.44648 1.190625,1.09141 z m -0.260449,-0.0248 q 0,-0.48369 -1.029395,-0.85576 -1.016992,-0.37207 -2.344043,-0.37207 -1.823144,0 -3.323828,0.79375 3.286621,1.0666 5.531446,1.0666 1.16582,0 1.16582,-0.63252 z m -3.497461,8.02432 q 0,-0.89297 -0.706934,-1.47588 -0.706933,-0.58291 -1.785937,-0.58291 -2.666504,0 -5.208984,2.22002 -2.542481,2.20761 -2.542481,4.51445 0,0.66973 0.409277,1.36426 0.719336,0.13642 1.327051,0.13642 2.926953,0 5.717481,-2.02158 2.790527,-2.03398 2.790527,-4.15478 z" />
      <path
         id="path123"
         style="font-style:normal;font-variant:normal;font-weight:normal;font-stretch:normal;font-family:'Edwardian Script ITC';-inkscape-font-specification:'Edwardian Script ITC';stroke-width:0.264583;fill:#ffffff"
         d="m 85.545461,138.30504 q 0,0.4961 -1.550293,1.97198 -0.07441,0.38447 -0.07441,0.66972 0,0.71934 0.657324,2.28204 0.334863,0.78134 0.334863,1.31464 0,1.11621 -1.091406,1.93477 -1.079004,0.81855 -2.567285,0.81855 -0.843359,0 -1.351856,-0.47129 -0.496093,-0.48369 -0.496093,-1.28984 0,-0.93017 0.657324,-1.81074 0.669726,-0.88057 1.37666,-0.88057 0.124024,0 0.223242,0.0496 l 0.992188,-1.21543 q 0.446484,-0.5333 1.190625,-1.47588 0.21084,-0.86816 0.644922,-1.48828 0.434082,-0.62012 0.855761,-0.62012 0.198438,0 0.198438,0.21084 z m -1.723926,4.89893 q 0,-0.37207 -0.02481,-0.73174 -0.0248,-0.37207 -0.0248,-1.0542 0,-0.5581 0.04961,-0.93017 -0.694531,0.88056 -2.00918,2.48047 0.235645,0.19843 0.235645,0.48369 0,0.73174 -1.203027,0.99218 -0.483692,0.11163 -0.84336,0.53331 -0.347265,0.40927 -0.347265,0.86816 0,0.49609 0.359668,0.83096 0.359668,0.33486 0.892968,0.33486 1.041797,0 1.971973,-1.20303 0.942578,-1.21543 0.942578,-2.60449 z" />
      <path
         id="path125"
         style="font-style:normal;font-variant:normal;font-weight:normal;font-stretch:normal;font-family:'Edwardian Script ITC';-inkscape-font-specification:'Edwardian Script ITC';stroke-width:0.264583;fill:#ffffff"
         d="m 92.465969,143.12956 q 0,0.16123 -1.748731,2.08359 -1.909961,2.08359 -3.249414,2.08359 -0.868164,0 -1.488281,-0.65732 -0.620117,-0.66973 -0.620117,-1.5875 0,-1.0418 0.843359,-2.15801 0.843359,-1.11621 2.269629,-1.92236 1.203027,-0.69453 1.95957,-0.69453 0.917774,0 0.917774,1.0914 0,0.85577 -0.58291,1.71153 -0.570508,0.85576 -1.141016,0.85576 -0.558106,0 -0.558106,-0.55811 0,-0.65732 1.141016,-1.21543 0.880566,-0.43408 0.880566,-1.14101 0,-0.55811 -0.607714,-0.55811 -1.029395,0 -2.530078,2.04639 -1.500684,2.04639 -1.500684,3.43545 0,1.16582 1.091406,1.16582 1.711524,0 4.638477,-3.85713 0.16123,-0.19844 0.235644,-0.19844 0.04961,0.0124 0.04961,0.0744 z" />
      <path
         id="path127"
         style="font-style:normal;font-variant:normal;font-weight:normal;font-stretch:normal;font-family:'Edwardian Script ITC';-inkscape-font-specification:'Edwardian Script ITC';stroke-width:0.264583;fill:#ffffff"
         d="m 101.18482,143.12956 q 0,0.26045 -1.810745,2.40605 -1.463476,1.76113 -2.306836,1.76113 -0.570508,0 -0.930175,-0.42168 -0.359668,-0.43408 -0.359668,-1.079 0,-0.66973 0.396875,-1.45107 -1.240235,1.73632 -1.897559,2.34404 -0.657324,0.60771 -1.277441,0.60771 -0.657325,0 -1.103809,-0.5581 -0.446484,-0.57051 -0.446484,-1.42627 0,-2.38125 3.361035,-4.2168 1.475879,-0.81855 2.38125,-0.81855 0.768945,0 0.768945,0.74414 0,0.21084 -0.09922,0.5581 l 0.63252,-1.20302 q 0.37207,0.0868 0.657324,0.0868 0.334863,0 0.868167,-0.0868 l -2.195218,3.63388 q -1.141015,1.90996 -1.141015,2.51768 0,0.58291 0.483691,0.58291 0.496094,0 1.5875,-1.12861 1.091406,-1.14102 2.220022,-2.80293 0.0744,-0.12403 0.13642,-0.12403 0.0744,0 0.0744,0.0744 z m -3.410647,-2.05879 q 0,-0.60772 -0.558106,-0.60772 -1.141015,0 -3.001367,2.23242 -1.847949,2.23243 -1.847949,3.60909 0,0.80615 0.719336,0.80615 0.855762,0 2.96416,-2.84014 1.723926,-2.33164 1.723926,-3.1998 z" />
      <path
         id="path129"
         style="font-style:normal;font-variant:normal;font-weight:normal;font-stretch:normal;font-family:'Edwardian Script ITC';-inkscape-font-specification:'Edwardian Script ITC';stroke-width:0.264583;fill:#ffffff"
         d="m 107.10073,142.26139 q 0,2.02158 -2.51767,3.6835 -2.04639,1.35185 -3.19981,1.35185 -0.79375,0 -0.79375,-0.74414 0,-0.22324 0.12403,-0.60771 l -4.750102,7.9251 q -0.434082,-0.0992 -0.706934,-0.0992 -0.409277,0 -0.806152,0.14883 l 10.182328,-16.74317 q 0.33486,0.11162 0.65732,0.11162 0.33486,0 0.81855,-0.11162 l -3.68349,5.95313 q 1.32705,-1.76114 1.92236,-2.30684 0.60772,-0.5457 1.20303,-0.5457 0.65732,0 1.10381,0.57051 0.44648,0.5705 0.44648,1.41386 z m -0.91777,-0.99219 q 0,-0.80615 -0.71934,-0.80615 -0.90537,0 -3.03857,2.91455 -1.64951,2.25723 -1.64951,3.10059 0,0.63252 0.58291,0.63252 1.14101,0 2.97656,-2.22002 1.84795,-2.23242 1.84795,-3.62149 z" />
      <path
         id="path131"
         style="font-style:normal;font-variant:normal;font-weight:normal;font-stretch:normal;font-family:'Edwardian Script ITC';-inkscape-font-specification:'Edwardian Script ITC';stroke-width:0.264583;fill:#ffffff"
         d="m 116.66294,143.12956 q 0,0.26045 -1.81074,2.40605 -1.46348,1.76113 -2.30684,1.76113 -0.57051,0 -0.93017,-0.42168 -0.35967,-0.43408 -0.35967,-1.079 0,-0.66973 0.39687,-1.45107 -1.24023,1.73632 -1.89756,2.34404 -0.65732,0.60771 -1.27744,0.60771 -0.65732,0 -1.10381,-0.5581 -0.44648,-0.57051 -0.44648,-1.42627 0,-2.38125 3.36104,-4.2168 1.47587,-0.81855 2.38125,-0.81855 0.76894,0 0.76894,0.74414 0,0.21084 -0.0992,0.5581 l 0.63252,-1.20302 q 0.37207,0.0868 0.65733,0.0868 0.33486,0 0.86816,-0.0868 l -2.19522,3.63388 q -1.14101,1.90996 -1.14101,2.51768 0,0.58291 0.48369,0.58291 0.49609,0 1.5875,-1.12861 1.09141,-1.14102 2.22002,-2.80293 0.0744,-0.12403 0.13643,-0.12403 0.0744,0 0.0744,0.0744 z m -3.41064,-2.05879 q 0,-0.60772 -0.55811,-0.60772 -1.14102,0 -3.00137,2.23242 -1.84795,2.23243 -1.84795,3.60909 0,0.80615 0.71934,0.80615 0.85576,0 2.96416,-2.84014 1.72393,-2.33164 1.72393,-3.1998 z" />
      <path
         id="path133"
         style="font-style:normal;font-variant:normal;font-weight:normal;font-stretch:normal;font-family:'Edwardian Script ITC';-inkscape-font-specification:'Edwardian Script ITC';stroke-width:0.264583;fill:#ffffff"
         d="m 127.93667,134.46032 q -4.65088,7.39179 -5.86631,9.45058 -1.22783,2.096 -1.22783,2.6417 0,0.55811 0.5085,0.55811 1.12861,0 3.83232,-3.93154 0.0744,-0.12403 0.13643,-0.12403 0.0744,0 0.0744,0.0744 -0.0124,0.0372 -0.12402,0.19843 l -0.5333,0.73174 q -2.34405,3.23701 -3.46026,3.23701 -0.57051,0 -0.93017,-0.42168 -0.35967,-0.43408 -0.35967,-1.1038 0,-0.66973 0.44648,-1.5503 -2.17041,3.07578 -3.22461,3.07578 -0.65732,0 -1.1038,-0.5581 -0.44649,-0.57051 -0.44649,-1.42627 0,-2.04639 2.54248,-3.7083 2.02158,-1.32705 3.175,-1.32705 0.76895,0 0.76895,0.74414 0,0.34726 -0.21084,0.78135 l 4.42763,-7.41661 q 0.40928,0.12403 0.80616,0.12403 0.0992,0 0.76894,-0.0496 z m -5.97793,6.66006 q 0,-0.65733 -0.60771,-0.65733 -1.11621,0 -2.95176,2.23242 -1.82315,2.22002 -1.82315,3.58428 0,0.83096 0.68213,0.83096 0.99219,0 3.41065,-3.44785 1.28984,-1.86035 1.28984,-2.54248 z" />
      <path
         id="path135"
         style="font-style:normal;font-variant:normal;font-weight:normal;font-stretch:normal;font-family:'Edwardian Script ITC';-inkscape-font-specification:'Edwardian Script ITC';stroke-width:0.264583;fill:#ffffff"
         d="m 131.65737,143.12956 q 0,0.0372 -0.22324,0.32246 l -0.5333,0.66972 q -2.56729,3.175 -4.40283,3.175 -0.86817,0 -1.46348,-0.62011 -0.58291,-0.63252 -0.58291,-1.5751 0,-2.23242 3.11299,-3.93154 1.63711,-0.89297 2.6665,-0.89297 0.44649,0 0.75654,0.27285 0.32247,0.26045 0.32247,0.64492 0,0.89297 -1.16582,1.52549 -1.16582,0.62012 -3.89434,1.16582 -0.84336,1.27744 -0.84336,2.1332 0,1.0666 1.15342,1.0666 1.95957,0 4.79971,-3.83232 0.14882,-0.19844 0.24804,-0.19844 0.0496,0.0124 0.0496,0.0744 z m -1.0418,-2.29444 q 0,-0.39687 -0.43408,-0.39687 -0.65732,0 -1.73633,0.91777 -1.0666,0.90537 -2.09599,2.35645 1.78594,-0.45889 3.02617,-1.28985 1.24023,-0.84336 1.24023,-1.5875 z" />
    </g>
  </g>
</svg>
